<?xml version="1.0" encoding="utf-8"?>
<!-- Generator: Adobe Illustrator 19.0.0, SVG Export Plug-In . SVG Version: 6.00 Build 0)  -->
<svg version="1.1" id="Layer_1" xmlns="http://www.w3.org/2000/svg" xmlns:xlink="http://www.w3.org/1999/xlink" x="0px" y="0px"
	 viewBox="-76.6 203.8 1504 477.9" style="enable-background:new -76.6 203.8 1504 477.9;" xml:space="preserve">
<style type="text/css">
	.st0{display:none;fill:#2D2D2D;stroke:#000000;stroke-miterlimit:10;}
	.st1{fill:#50514F;}
</style>
<rect x="-76.6" y="203.8" class="st0" width="1560" height="477.9"/>
<path class="st1" d="M287.2,419.5c-17.6,11.3-37.7,17.6-67.9,15.7c5.4,6.7,10.8,12.5,15.8,17.3c9.4,8.1,25.1,12.2,40.8,25.3
	c4.3,8.8,12.8,14.3,2.8,19.4c-10.9,5.6-4.7,12.1-5.9,19.5c9.4,12.9,14.4,18.6-10.4,23.3c16.6,22,13.3,28.2-15.4,26.3
	c-2.3,0.5-4.6,0.9-6.6,1.1c-0.2,41.2-25.5,65.7-51.6,95.2C126.4,629,66,519.7,77.8,453c-27.2,19.3-48.6,24.8-69.9,24.1
	c20-13.1,26.8-47.9,39.8-68.6c1.4-2.2,2.6-4.3,3.6-6.5C7.5,416.9-37.7,412.2-64,371.2c-36.8-57.1,7.6-144.2,126.4-127.1
	c-95.3,3.9-116.7,58.6-87.6,101.2c19.3,26.3,78.8-21.7,98.6-47.4c22.5-26.4,59.9-24.8,88.6-15.6c0.1-0.1,0.1-0.4,0.1-0.6
	c17.3-2.7,41.2-0.4,56.4,22.2c19.8,32.9,44.5,43.7,66.9,39.1c35.5-9.1,9.6-91-49.4-104.1c77.2-10.4,116.3,120.6,73.1,144.1
	c-21,10.6-62.2,4.4-93.2-7.6c2,2.1,4.1,3.8,6.1,4.9C242.6,391.7,263.9,418.6,287.2,419.5L287.2,419.5z"/>
<g>
	<path class="st1" d="M465.1,551.1V337.8h73.2c26.5,0,47.1,4.9,62,14.7c14.8,9.8,22.3,24.4,22.3,43.9c0,10.2-2.4,19.2-7.2,27.1
		c-4.8,7.9-12.2,13.9-22.1,17.9c12.5,2.8,21.7,8.5,27.7,17.1c6,8.5,8.9,18.4,8.9,29.5c0,20.8-7,36.5-20.9,47.2
		c-14,10.6-34,16-60.1,16H465.1z M514.8,426.7h24.6c11.2-0.2,19.6-2.4,25.2-6.5c5.6-4.1,8.3-10.2,8.3-18.2c0-9.1-2.8-15.7-8.5-19.8
		c-5.7-4.1-14.4-6.2-26.1-6.2h-23.6V426.7z M514.8,459.5V513h34.1c10.5,0,18.5-2.1,23.7-6.2c5.3-4.1,7.9-10.5,7.9-19.1
		c0-9.3-2.3-16.3-6.8-21c-4.5-4.7-11.9-7.1-22-7.1H514.8z"/>
	<path class="st1" d="M750.2,532.3c-5.1,7-11.3,12.4-18.7,16.2c-7.4,3.8-15.7,5.6-25,5.6c-16.4,0-29.3-5.3-38.6-15.8
		c-9.3-10.5-14-26.9-14-49.1v-96.7h49.4v97c0,8.9,1.7,15.5,5.1,19.9s8.2,6.6,14.4,6.6c5.3,0,9.9-0.7,13.9-2.2
		c4-1.5,7.4-3.7,10.3-6.6V392.6h49.5v158.5h-43.2L750.2,532.3z"/>
	<path class="st1" d="M834.3,551.1V426.9h-22.9v-34.3h22.9v-16.4c0-18.3,5.5-32.3,16.4-42c10.9-9.8,26.4-14.6,46.4-14.6
		c3.7,0,7.5,0.3,11.4,0.8c3.9,0.5,8.3,1.3,13,2.3l-3.7,36.5c-2.6-0.5-5-0.9-7.1-1.1c-2.1-0.2-4.7-0.4-7.7-0.4
		c-6.2,0-10.9,1.6-14.2,4.8c-3.3,3.2-5,7.8-5,13.8v16.4h30.8v34.3h-30.8v124.2H834.3z"/>
	<path class="st1" d="M943.1,551.1V426.9h-22.9v-34.3h22.9v-16.4c0-18.3,5.5-32.3,16.4-42c10.9-9.8,26.4-14.6,46.4-14.6
		c3.7,0,7.5,0.3,11.4,0.8c3.9,0.5,8.3,1.3,13,2.3l-3.7,36.5c-2.6-0.5-5-0.9-7.1-1.1c-2.1-0.2-4.7-0.4-7.7-0.4
		c-6.2,0-10.9,1.6-14.2,4.8c-3.3,3.2-5,7.8-5,13.8v16.4h30.8v34.3h-30.8v124.2H943.1z"/>
	<path class="st1" d="M1132.5,550.9c-1.4-2.5-2.6-5.4-3.7-8.5c-1.1-3.1-2.1-6.3-2.9-9.7c-4.7,6.5-10.4,11.7-17,15.6
		c-6.6,3.9-14.7,5.8-24.2,5.8c-15,0-27.3-4.3-36.7-13c-9.4-8.7-14.1-20.3-14.1-34.7c0-15.7,5.9-27.9,17.7-36.4
		c11.8-8.5,29.7-12.8,53.7-12.8h18v-11.3c0-6.7-1.6-11.9-4.8-15.5c-3.2-3.6-8.1-5.4-14.7-5.4c-5.7,0-9.9,1.3-12.7,4
		c-2.8,2.7-4.2,6.9-4.2,12.5l-47.9-0.1l-0.3-0.9c-0.7-14.5,5.3-26.5,18-36.3c12.7-9.7,29.5-14.6,50.4-14.6
		c19.5,0,35.4,4.9,47.5,14.6c12.2,9.8,18.2,23.7,18.2,41.9V506c0,8.5,0.7,16.4,2.1,23.6c1.4,7.2,3.5,14.4,6.4,21.5L1132.5,550.9z
		 M1099.9,518.9c4.9,0,9.4-1,13.5-2.9c4.1-2,7.4-4.5,10-7.6v-24.8h-17.6c-7.8,0-13.5,1.9-17.1,5.7c-3.6,3.8-5.3,8.6-5.3,14.5
		c0,4.5,1.5,8.1,4.6,10.9S1095,518.9,1099.9,518.9z"/>
	<path class="st1" d="M1252.3,551.1h-49.7V322.6h49.7V551.1z"/>
	<path class="st1" d="M1276.1,470.4c0-23.8,6.7-43.2,20.2-58.2c13.5-15,32.3-22.5,56.4-22.5c24.2,0,43.1,7.5,56.5,22.5
		c13.5,15,20.2,34.4,20.2,58.2v3.1c0,23.9-6.7,43.4-20.2,58.3s-32.2,22.4-56.3,22.4c-24.3,0-43.2-7.5-56.7-22.4
		s-20.2-34.4-20.2-58.3V470.4z M1325.6,473.4c0,13.3,2.1,23.7,6.2,31.3c4.1,7.6,11.2,11.4,21.2,11.4c9.7,0,16.6-3.8,20.8-11.4
		c4.2-7.6,6.3-18,6.3-31.2v-3.1c0-12.9-2.1-23.2-6.3-31c-4.2-7.8-11.2-11.6-21.1-11.6c-9.8,0-16.7,3.9-20.9,11.7
		c-4.2,7.8-6.2,18.1-6.2,30.9V473.4z"/>
</g>
</svg>
